<svg width="152" height="195" viewBox="0 0 152 195" fill="none" xmlns="http://www.w3.org/2000/svg">
<path fill-rule="evenodd" clip-rule="evenodd" d="M109.888 0.779519C105.831 0.265118 101.696 0 97.5 0C95.1529 0 92.8253 0.0829311 90.5197 0.246023V177.625L80.3209 193.491C85.8977 194.483 91.6385 195 97.5 195C101.696 195 105.831 194.735 109.888 194.22V0.779519ZM130.375 189.319V5.68148C168.048 19.1716 195 55.1883 195 97.5C195 139.812 168.048 175.828 130.375 189.319ZM0 97.5C0 53.1896 29.5585 15.783 70.0333 3.92228V146.034L47.4395 181.184C19.0209 164.148 0 133.045 0 97.5Z" fill="#F18505"/>
</svg>
