<svg width="286" height="1028" viewBox="0 0 286 1028" fill="none" xmlns="http://www.w3.org/2000/svg">
<path d="M108 390.514C205.613 390.514 286 311.55 286 212.486L-70 212.486C-70 311.55 8.95164 390.514 108 390.514Z" fill="#151F29"/>
<path d="M108 178.029C205.613 178.029 286 99.0643 286 0L-69.9999 -1.55613e-05C-69.9999 99.0643 8.95165 178.029 108 178.029Z" fill="#151F29"/>
<path d="M108 815.486C205.613 815.486 286 735.087 286 637.458L-70 637.458C-70 735.087 8.95162 815.486 108 815.486Z" fill="#151F29"/>
<path d="M108 603C205.613 603 286 522.6 286 424.972L-70 424.972C-70 522.6 8.95164 603 108 603Z" fill="#151F29"/>
<path d="M108 1027.97C205.613 1027.97 286 947.572 286 849.943L-70 849.943C-70 947.572 8.95161 1027.97 108 1027.97Z" fill="#151F29"/>
</svg>
