<svg width="62" height="343" viewBox="0 0 62 343" fill="none" xmlns="http://www.w3.org/2000/svg">
<g clip-path="url(#clip0_15:2)">
<path d="M4.28931 343H0C0 332.476 5.45912 327.019 10.5283 322.342C15.2075 318.055 19.4969 313.767 19.4969 305.192C19.4969 296.617 15.2075 292.33 10.1384 287.652C5.45912 282.585 0 277.518 0 266.994C0 256.47 5.45912 251.014 10.5283 246.336C15.2075 241.659 19.4969 237.372 19.4969 228.797C19.4969 220.222 15.2075 215.934 10.1384 211.257C5.45912 206.58 0 201.123 0 190.599C0 180.075 5.45912 174.618 10.5283 169.941C15.2075 165.264 19.4969 160.976 19.4969 152.401C19.4969 143.826 15.2075 139.539 10.1384 134.861C5.45912 130.184 0 124.727 0 114.203C0 103.68 5.45912 98.2227 10.5283 93.5455C15.2075 89.258 19.4969 84.9705 19.4969 76.3955C19.4969 67.8205 15.2075 63.533 10.1384 58.8557C5.45912 53.7886 0 48.7216 0 38.1977C0 27.6739 5.45912 22.217 10.5283 17.5398C15.2075 12.8625 19.4969 8.575 19.4969 0H23.7862C23.7862 10.5239 18.327 15.9807 13.2579 20.658C8.96855 25.3352 4.28931 29.6227 4.28931 38.1977C4.28931 46.7727 8.57862 51.0602 13.6478 55.7375C18.717 60.4148 24.1761 65.8716 24.1761 76.3955C24.1761 86.9193 18.717 92.3761 13.6478 97.0534C8.96855 101.731 4.28931 106.018 4.28931 114.593C4.28931 123.168 8.57862 127.456 13.6478 132.133C18.717 136.81 24.1761 142.267 24.1761 152.791C24.1761 163.315 18.717 168.772 13.6478 173.449C8.96855 178.126 4.28931 182.414 4.28931 190.989C4.28931 199.564 8.57862 203.851 13.6478 208.528C18.717 213.206 24.1761 218.662 24.1761 229.186C24.1761 239.71 18.717 245.167 13.6478 249.844C8.96855 254.522 4.28931 258.809 4.28931 267.384C4.28931 275.959 8.57862 280.247 13.6478 284.924C18.717 289.601 24.1761 295.058 24.1761 305.582C24.1761 316.106 18.717 321.562 13.6478 326.24C8.96855 330.137 4.28931 334.425 4.28931 343Z" fill="#C83C32"/>
<path d="M23.3962 343H19.1069C19.1069 332.476 24.566 327.019 29.6352 322.342C34.3145 317.665 38.9937 313.377 38.9937 304.802C38.9937 296.227 34.7044 291.94 29.6352 287.262C24.566 282.585 19.1069 277.128 19.1069 266.605C19.1069 256.081 24.566 250.624 29.6352 245.947C34.3145 241.269 38.9937 236.982 38.9937 228.407C38.9937 219.832 34.7044 215.544 29.6352 210.867C24.566 206.19 19.1069 200.733 19.1069 190.209C19.1069 179.685 24.566 174.228 29.6352 169.551C34.3145 164.874 38.9937 160.586 38.9937 152.011C38.9937 143.436 34.7044 139.149 29.6352 134.472C24.566 129.794 19.1069 124.338 19.1069 113.814C19.1069 103.29 24.566 97.833 29.6352 93.1557C34.3145 88.4784 38.9937 84.1909 38.9937 75.6159C38.9937 67.0409 34.7044 62.7534 29.6352 58.0761C24.566 53.3989 19.1069 47.942 19.1069 37.4182C19.1069 26.8943 24.566 21.4375 29.6352 16.7602C34.3145 12.8625 38.6038 8.575 38.6038 0H42.8931C42.8931 10.5239 37.434 15.9807 32.3648 20.658C27.6855 25.3352 23.3962 29.6227 23.3962 38.1977C23.3962 46.7727 27.6855 51.0602 32.7547 55.7375C37.8239 60.4148 43.283 65.8716 43.283 76.3955C43.283 86.9193 37.8239 92.3761 32.7547 97.0534C27.6855 101.341 23.3962 105.628 23.3962 114.203C23.3962 122.778 27.6855 127.066 32.7547 131.743C37.8239 136.42 43.283 141.877 43.283 152.401C43.283 162.925 37.8239 168.382 32.7547 173.059C27.6855 177.736 23.3962 182.024 23.3962 190.599C23.3962 199.174 27.6855 203.461 32.7547 208.139C37.434 212.816 42.8931 218.273 42.8931 228.797C42.8931 239.32 37.434 244.777 32.3648 249.455C27.6855 254.132 23.3962 258.419 23.3962 266.994C23.3962 275.569 27.6855 279.857 32.7547 284.534C37.8239 289.211 43.283 294.668 43.283 305.192C43.283 315.716 37.8239 321.173 32.7547 325.85C27.6855 330.137 23.3962 334.425 23.3962 343Z" fill="#C83C32"/>
<path d="M42.1132 343H37.8239C37.8239 332.476 43.283 327.02 48.3522 322.342C53.0314 317.665 57.7107 313.377 57.7107 304.802C57.7107 296.227 53.4214 291.94 48.3522 287.263C43.283 282.585 37.8239 277.129 37.8239 266.605C37.8239 256.081 43.283 250.624 48.3522 245.947C53.0314 241.27 57.7107 236.982 57.7107 228.407C57.7107 219.832 53.4214 215.545 48.3522 210.867C43.283 206.19 37.8239 200.733 37.8239 190.209C37.8239 179.685 43.283 174.229 48.3522 169.551C53.0314 164.874 57.7107 160.587 57.7107 152.012C57.7107 143.437 53.4214 139.149 48.3522 134.472C43.283 129.795 37.8239 124.338 37.8239 113.814C37.8239 103.29 43.283 97.8332 48.3522 93.1559C53.0314 88.4787 57.7107 84.1912 57.7107 75.6162C57.7107 67.0412 53.4214 62.7537 48.3522 58.0764C43.283 53.3991 37.8239 47.9423 37.8239 37.4184C37.8239 26.8946 43.283 21.4377 48.3522 16.7605C53.0314 12.0832 57.7107 7.7957 57.7107 -0.779297H62C62 9.74457 56.5409 15.2014 51.4717 19.8787C46.7924 24.5559 42.1132 28.8434 42.1132 37.4184C42.1132 45.9934 46.4025 50.2809 51.4717 54.9582C56.5409 59.6355 62 65.0923 62 75.6162C62 86.14 56.5409 91.5968 51.4717 96.2741C46.7924 100.951 42.1132 105.239 42.1132 113.814C42.1132 122.389 46.4025 126.676 51.4717 131.354C56.5409 136.031 62 141.488 62 152.012C62 162.535 56.5409 167.992 51.4717 172.67C46.7924 177.347 42.1132 181.634 42.1132 190.209C42.1132 198.784 46.4025 203.072 51.4717 207.749C56.5409 212.426 62 217.883 62 228.407C62 238.931 56.5409 244.388 51.4717 249.065C46.7924 253.742 42.1132 258.03 42.1132 266.605C42.1132 275.18 46.4025 279.467 51.4717 284.145C56.5409 288.822 62 294.279 62 304.802C62 315.326 56.5409 320.783 51.4717 325.46C46.7924 330.138 42.1132 334.425 42.1132 343Z" fill="#C83C32"/>
</g>
<defs>
<clipPath id="clip0_15:2">
<rect width="62" height="343" fill="white"/>
</clipPath>
</defs>
</svg>
